<svg width="7" height="7" viewBox="0 0 8 8" fill="none" xmlns="http://www.w3.org/2000/svg">
<path d="M0.74375 4.7185L3.56719 7.80084C3.68438 7.92874 3.83906 8 4 8C4.16094 8 4.31563 7.92874 4.43281 7.80084L7.25625 4.7185C7.73125 4.20143 8 3.47607 8 2.71781V2.61184C8 1.33469 7.21094 0.24573 6.13438 0.0356123C5.42188 -0.103248 4.69687 0.168992 4.1875 0.764631L4 0.983884L3.8125 0.764631C3.30313 0.168992 2.57812 -0.103248 1.86563 0.0356123C0.789062 0.24573 0 1.33469 0 2.61184V2.71781C0 3.47607 0.26875 4.20143 0.74375 4.7185Z" fill="#FF0000"/>
</svg>
